<svg id="Layer_1" data-name="Layer 1" xmlns="http://www.w3.org/2000/svg" viewBox="0 0 64 64"><title>industry</title><path d="M9.79,12H16a5,5,0,0,1,4.61,3.06A8,8,0,0,0,35,15.91a6,6,0,0,0,7-6.09A6.17,6.17,0,0,0,35.73,4H14a6,6,0,0,0-6,6v.19A1.81,1.81,0,0,0,9.79,12Z"/><circle cx="53.83" cy="8" r="4"/><circle cx="45.83" cy="6" r="2"/><path d="M6.26,32.71l-.18,2.13A1.07,1.07,0,0,0,7.16,36h9.28a1.07,1.07,0,0,0,1.07-1.16l-.17-2.13a.77.77,0,0,0-.77-.71H7A.77.77,0,0,0,6.26,32.71Z"/><path d="M6.93,24.71l-.18,2.13A1.07,1.07,0,0,0,7.82,28h8a1.07,1.07,0,0,0,1.07-1.16l-.17-2.13a.77.77,0,0,0-.77-.71H7.7A.77.77,0,0,0,6.93,24.71Z"/><path d="M56.23,35.55l-7.46,3.61a1.67,1.67,0,0,0-.94,1.51v4.14a1,1,0,1,1-2,0v-7a2.51,2.51,0,0,0-3.6-2.26l-7.46,3.61a1.67,1.67,0,0,0-.94,1.51v4.14a1,1,0,1,1-2,0v-7a2.51,2.51,0,0,0-3.6-2.26l-6.59,3.24a2.79,2.79,0,0,0-1.56,2.65l.16,3.07a1,1,0,0,1-2,.15L18,41.21A1.31,1.31,0,0,0,16.66,40H7.22a1.7,1.7,0,0,0-1.69,1.56L4.18,57.67A2.15,2.15,0,0,0,6.33,60l51.35-.17a2.15,2.15,0,0,0,2.14-2.15V37.81A2.51,2.51,0,0,0,56.23,35.55Zm-30.4,15.9a.35.35,0,0,1-.35.35H22.18a.35.35,0,0,1-.35-.35V49.92a2.07,2.07,0,0,1,1.66-2.08,2,2,0,0,1,2.34,2Zm16,0a.35.35,0,0,1-.35.35H38.18a.35.35,0,0,1-.35-.35V49.92a2.07,2.07,0,0,1,1.66-2.08,2,2,0,0,1,2.34,2Zm14,0a.35.35,0,0,1-.35.35H52.18a.35.35,0,0,1-.35-.35V49.92a2.07,2.07,0,0,1,1.66-2.08,2,2,0,0,1,2.34,2Z"/><path d="M7.61,16.57l-.19,2.27A1.07,1.07,0,0,0,8.49,20h6.66a1.07,1.07,0,0,0,1.07-1.16L16,16.57a.61.61,0,0,0-.61-.56H8.22A.61.61,0,0,0,7.61,16.57Z"/></svg>