<svg version="1.0" xmlns="http://www.w3.org/2000/svg" width="110px" height="110px" viewBox="0 0 452.000000 454.000000">
<!--1/8 452,454-->
<g transform="translate(0.000000,454.000000) scale(0.100000,-0.100000)" fill="#ffffff" stroke="none">
<path d="M1299 2996 c-198 -53 -311 -288 -225 -468 36 -77 112 -149 189 -181
34 -15 179 -71 322 -126 143 -54 313 -120 378 -145 127 -50 168 -55 286 -35
81 13 106 26 180 95 65 60 101 132 101 202 0 155 -134 261 -275 217 -147 -47
-196 -244 -81 -323 58 -40 122 -30 165 24 28 36 26 66 -5 103 -27 32 -61 40
-82 19 -9 -9 -15 -9 -24 0 -17 17 2 33 48 39 33 4 45 0 73 -25 31 -25 35 -34
35 -81 1 -49 -2 -55 -41 -92 -36 -34 -49 -39 -88 -39 -134 0 -214 139 -155
268 33 72 60 103 114 128 133 62 289 -8 330 -147 36 -119 8 -211 -94 -311 -91
-88 -144 -108 -289 -110 -112 -1 -107 -2 -276 66 -49 20 -211 83 -359 140
l-268 104 -169 -55 -168 -55 -6 -56 c-14 -138 -15 -140 -51 -171 -47 -41 -131
-64 -229 -63 -117 1 -217 43 -231 97 l-6 23 -179 -61 c-98 -34 -178 -65 -176
-69 1 -4 139 -98 307 -209 168 -111 342 -227 388 -257 l84 -57 86 32 c48 17
132 48 187 69 229 84 1363 539 1396 560 71 44 118 119 143 228 31 132 19 197
-60 323 -80 128 -159 177 -362 223 -70 16 -279 65 -465 109 -186 45 -353 81
-370 80 -18 0 -53 -6 -78 -13z"/>
<path d="M2963 2910 c-95 -34 -164 -97 -213 -195 -26 -51 -30 -72 -31 -140 0
-131 39 -218 136 -297 39 -32 187 -108 210 -108 4 0 174 -63 380 -140 379
-143 460 -167 524 -155 128 23 242 103 290 204 22 48 26 70 26 147 0 81 -3 95
-26 130 -27 41 -100 87 -156 99 -67 14 -185 -53 -219 -123 -60 -126 50 -284
164 -236 56 23 72 42 72 85 0 26 -7 45 -22 59 -24 22 -68 26 -86 8 -14 -14
-27 -4 -19 16 3 8 20 17 37 21 89 20 151 -79 101 -161 -35 -58 -140 -83 -200
-48 -54 32 -91 110 -91 193 0 108 120 212 247 213 79 0 167 -53 206 -125 31
-58 30 -196 -2 -279 -37 -95 -170 -200 -287 -226 -70 -15 -182 1 -279 41 -168
68 -770 290 -785 289 -14 0 -414 -157 -435 -170 -5 -4 -14 -7 -20 -8 -10 -2
-618 -243 -740 -294 -68 -28 -156 -64 -395 -157 -63 -25 -118 -49 -122 -52 -4
-4 211 -138 478 -299 l486 -292 156 71 c87 39 199 91 251 115 51 24 95 44 96
44 2 0 41 17 87 39 69 32 332 152 588 269 30 13 190 86 355 162 165 75 345
157 400 181 159 70 239 168 285 349 42 161 1 315 -118 443 -67 71 -142 112
-252 137 -52 12 -140 33 -195 45 -55 13 -154 35 -220 50 -66 14 -147 33 -180
40 -195 47 -342 75 -383 75 -26 -1 -71 -9 -99 -20z"/>
<path d="M545 2619 c-117 -17 -211 -65 -238 -121 -14 -29 -14 -35 1 -60 76
-130 378 -180 554 -92 61 31 118 81 118 105 0 31 -58 87 -124 119 -51 25 -219
65 -246 59 -3 -1 -32 -5 -65 -10z m176 -44 c121 -26 219 -82 219 -127 0 -18
-5 -16 -39 15 -79 72 -263 112 -371 81 -79 -23 -125 -49 -157 -89 -32 -40 -43
-44 -43 -15 0 25 56 81 104 104 40 19 144 44 188 45 15 1 59 -6 99 -14z"/>
<path d="M300 2386 c0 -25 61 -81 120 -111 100 -51 304 -52 419 -3 68 29 121
68 121 90 0 17 -4 16 -37 -11 -143 -113 -461 -101 -590 22 -27 26 -33 28 -33
13z"/>
<path d="M355 2259 c22 -110 40 -167 59 -187 63 -70 218 -100 323 -62 34 12
34 11 47 151 7 64 2 73 -28 57 -31 -17 -197 -12 -264 7 -31 9 -77 28 -101 42
l-43 25 7 -33z"/>
</g>
</svg>
