<svg version="1.0" xmlns="http://www.w3.org/2000/svg" width="100px" height="102px" viewBox="0 0 444.000000 446.000000">
<!--1/8 446,446-->
<g transform="translate(0.000000,446.000000) scale(0.100000,-0.100000)" fill="#000000" stroke="none">
<path d="M2513 3736 c-21 -10 -34 -24 -39 -43 -43 -187 -128 -397 -205 -510
-42 -60 -119 -136 -187 -181 -52 -36 -174 -102 -187 -102 -3 0 -10 12 -15 26
-7 18 -16 24 -32 22 -12 -2 -23 -9 -26 -16 -2 -8 2 -10 13 -6 10 4 21 1 26 -7
13 -22 11 -27 -13 -31 -13 -2 -21 -7 -18 -13 2 -5 10 -9 17 -7 9 2 13 -9 13
-33 0 -27 -4 -35 -17 -35 -16 -1 -90 -25 -135 -45 -14 -5 -18 -2 -18 13 0 14
8 22 23 24 25 3 33 38 22 95 -4 25 -11 33 -28 34 -22 0 -22 0 1 10 35 13 17
29 -33 29 -50 0 -68 -16 -33 -29 21 -9 21 -10 -9 -10 l-33 -1 0 -65 c0 -63 1
-65 25 -65 21 0 25 -5 25 -31 0 -24 -12 -43 -55 -86 -63 -63 -119 -167 -136
-254 -11 -57 -13 -59 -43 -59 -67 0 -111 -85 -122 -235 l-7 -85 34 0 35 0 10
89 c8 67 17 99 35 125 13 20 26 36 29 36 3 0 3 -56 1 -125 l-3 -125 338 0
c187 0 437 3 557 7 l217 6 0 34 0 33 -260 0 -261 0 -23 25 c-44 48 -84 137
-91 205 -12 117 23 195 113 247 101 59 233 24 377 -102 42 -37 80 -63 84 -59
4 5 14 46 21 92 11 74 11 85 -4 101 -9 9 -16 23 -16 30 0 7 -4 10 -8 7 -5 -3
-86 -10 -181 -17 l-173 -11 -74 73 c-47 47 -74 81 -74 95 0 13 -11 36 -25 52
l-24 29 51 24 c133 61 243 154 318 266 27 41 50 73 50 71 0 -2 -13 -45 -29
-96 -16 -50 -26 -94 -23 -97 3 -3 133 -5 289 -5 246 0 283 2 283 15 0 23 -197
656 -207 666 -17 17 -106 20 -140 5z m132 -125 c13 -22 -108 -95 -148 -89 -31
4 -22 21 17 35 18 6 51 22 72 36 44 29 50 31 59 18z m41 -82 c14 -24 -125
-109 -178 -109 -45 0 -33 25 20 39 26 6 67 27 92 46 50 38 56 40 66 24z m29
-108 c11 -18 -57 -66 -100 -71 -63 -7 -57 5 25 48 64 34 67 35 75 23z m-106
-121 c38 -11 84 -20 104 -20 39 0 56 -15 38 -33 -14 -14 -150 13 -215 44 -58
27 -132 91 -122 107 4 8 27 -3 67 -33 38 -28 87 -52 128 -65z m-174 -24 c57
-44 149 -85 234 -105 46 -11 86 -23 89 -26 9 -9 -18 -23 -37 -19 -138 27 -242
69 -304 123 -58 51 -43 73 18 27z m-18 -99 c27 -19 63 -40 81 -47 34 -13 41
-27 18 -36 -29 -11 -174 85 -160 107 8 13 9 12 61 -24z m-707 -323 c0 -33 -1
-34 -40 -34 -40 0 -40 0 -40 38 l0 38 40 -4 c38 -4 40 -6 40 -38z m240 -46 c0
-4 -13 -8 -30 -8 -28 0 -30 3 -30 37 l0 37 30 -29 c17 -16 30 -32 30 -37z"/>
<path d="M2489 3013 l-87 -4 -6 -37 c-7 -45 -62 -103 -119 -127 -21 -9 -89
-21 -150 -27 -62 -6 -116 -14 -120 -18 -5 -4 21 -33 57 -65 64 -56 68 -58 121
-56 116 2 290 22 294 32 8 24 42 49 66 49 71 0 102 -108 40 -140 -16 -8 -33
-19 -36 -24 -12 -16 -32 -162 -31 -231 1 -63 -1 -68 -13 -51 -11 14 -12 23 -4
33 9 10 8 13 -1 13 -7 0 -10 8 -7 20 3 11 1 18 -4 14 -5 -3 -9 -11 -9 -19 0
-7 -12 -15 -27 -17 -20 -2 -29 -9 -31 -26 -4 -27 22 -40 43 -22 26 21 55 -14
55 -67 0 -23 5 -43 10 -43 6 0 10 -16 10 -35 0 -19 5 -35 10 -35 6 0 10 16 10
35 0 19 5 35 10 35 14 0 12 -78 -2 -82 -7 -3 -9 -11 -4 -24 8 -17 10 -16 22
11 7 17 13 44 14 61 0 19 6 34 15 38 12 4 15 25 15 97 0 92 0 92 35 126 56 55
70 127 74 401 l3 192 -84 -2 c-45 -1 -122 -4 -169 -5z m105 -619 c13 -5 16
-23 16 -90 l0 -84 -35 0 c-26 0 -35 4 -35 16 0 14 2 15 17 3 17 -13 17 -13 0
13 -23 37 -23 116 1 134 21 16 17 15 36 8z m-128 -55 c10 -17 -13 -36 -27 -22
-12 12 -4 33 11 33 5 0 12 -5 16 -11z"/>
<path d="M2525 2710 c-3 -5 3 -10 14 -10 16 0 21 -6 21 -25 0 -28 15 -34 24
-9 13 35 -40 75 -59 44z"/>
<path d="M3427 2550 c-107 -27 -229 -124 -267 -212 -17 -41 -22 -69 -21 -147
0 -54 4 -108 9 -122 12 -30 252 -362 295 -407 128 -135 318 -135 469 -2 64 56
92 123 92 225 1 144 -49 234 -158 286 -95 45 -181 38 -273 -24 -61 -40 -83
-84 -83 -162 0 -127 60 -220 163 -250 75 -22 117 -9 158 47 23 32 29 52 29 90
0 54 -20 102 -49 118 -32 17 -86 12 -115 -11 -26 -21 -46 -18 -46 5 0 17 33
39 83 55 33 11 42 10 80 -8 62 -31 87 -73 87 -151 0 -119 -71 -190 -191 -190
-104 1 -183 66 -229 187 -28 74 -23 142 16 214 30 54 62 83 131 119 58 30 182
30 253 -1 57 -25 124 -92 151 -153 24 -55 41 -175 33 -229 -11 -70 -53 -144
-109 -196 -66 -59 -124 -87 -214 -103 -59 -10 -77 -9 -135 6 -37 10 -84 32
-107 50 -22 17 -107 121 -188 231 l-146 200 -265 0 c-146 0 -704 -4 -1242 -9
l-976 -8 -174 -266 c-219 -335 -215 -329 -203 -341 6 -6 644 -12 1690 -16
l1680 -7 90 21 c131 31 207 72 291 155 80 80 117 147 139 251 38 182 -6 326
-145 466 -79 79 -282 223 -377 266 -62 29 -162 39 -226 23z m-849 -588 c-2
-23 -7 -27 -30 -25 -16 1 -28 -2 -28 -8 0 -5 -370 -10 -940 -11 -517 -2 -940
-1 -940 0 0 2 9 17 21 33 l20 29 542 3 c298 1 726 3 950 4 l408 2 -3 -27z"/>
<path d="M2610 2085 l0 -35 166 0 165 0 -27 35 -26 35 -139 0 -139 0 0 -35z"/>
</g>
</svg>
