<svg version="1.0" xmlns="http://www.w3.org/2000/svg" width="96px" height="86px" viewBox="0 0 381.000000 346.000000">
<!--1/8 381,346-->
<g transform="translate(0.000000,346.000000) scale(0.100000,-0.100000)" fill="#ffffff" stroke="none">
<path d="M1790 3133 c-68 -10 -119 -26 -153 -49 l-37 -25 -338 11 c-379 11
-394 9 -520 -54 -72 -36 -232 -150 -232 -165 0 -10 58 -21 113 -21 26 0 37 -4
37 -15 0 -8 -6 -15 -12 -15 -24 0 -137 -59 -193 -100 -59 -44 -138 -136 -132
-154 2 -6 34 -15 70 -20 38 -5 67 -14 67 -21 0 -6 -18 -28 -39 -49 -42 -41
-96 -148 -87 -171 3 -8 27 -17 56 -21 27 -4 50 -10 50 -15 0 -5 -14 -30 -30
-56 -36 -56 -59 -130 -62 -197 -3 -57 7 -66 80 -66 28 0 52 -3 52 -7 -1 -5
-14 -62 -31 -128 -16 -66 -31 -127 -32 -135 -1 -11 14 -17 61 -24 l63 -10 -6
-85 c-3 -47 -8 -96 -11 -108 -5 -27 20 -43 69 -43 l34 0 -1 -107 c-1 -105 0
-108 22 -111 18 -3 22 -10 22 -36 0 -27 -8 -39 -49 -72 -75 -60 -104 -108
-109 -175 -6 -78 34 -297 59 -324 19 -19 20 -19 66 -1 100 39 159 57 173 53
251 -72 741 -218 850 -255 l145 -49 3 -67 c4 -91 12 -94 199 -67 78 12 166 21
195 21 54 0 78 12 78 38 0 24 61 100 89 111 95 36 334 81 432 81 66 0 67 0 88
-36 20 -34 24 -36 59 -31 58 9 225 56 235 66 13 13 -9 201 -33 295 -21 80 -57
159 -129 281 -54 92 -53 100 12 111 l52 9 3 147 3 147 52 3 52 3 3 123 c3 121
3 122 26 122 50 0 56 8 56 74 0 55 -10 145 -25 234 -6 31 -5 32 29 32 19 0 41
7 50 15 18 18 15 38 -20 163 -29 101 -29 98 1 106 50 13 50 39 1 133 -55 102
-57 118 -17 110 20 -4 33 -1 45 11 14 17 13 22 -21 73 -20 29 -49 69 -65 87
-36 42 -36 62 1 62 16 0 34 7 41 15 17 21 -36 85 -143 171 -154 125 -213 140
-604 154 -153 6 -332 15 -398 20 -117 9 -315 11 -365 3z m1121 -123 c79 -15
191 -72 250 -127 43 -40 48 -48 32 -54 -12 -4 -31 6 -62 33 -25 21 -78 55
-119 75 -75 38 -100 42 -256 43 -55 0 -53 12 4 28 47 14 87 14 151 2z m-648
-16 c33 -8 77 -24 96 -34 36 -18 78 -57 70 -64 -2 -2 -28 -13 -58 -25 l-54
-20 -33 29 c-38 33 -133 66 -222 76 -125 14 -317 -50 -448 -149 -77 -59 -196
-183 -235 -247 l-30 -48 -52 4 c-29 3 -238 18 -465 34 -228 16 -417 31 -420
35 -9 9 46 56 116 102 60 39 277 113 331 113 20 0 159 -11 310 -25 l275 -25
25 24 c90 82 316 203 414 221 104 19 305 19 380 -1z m489 -60 c3 -3 -5 -16
-18 -29 -13 -13 -24 -31 -24 -40 0 -18 -4 -18 -47 -3 -39 14 -41 24 -11 55 15
16 33 23 58 23 20 0 39 -3 42 -6z m238 -55 c69 -32 193 -149 258 -242 l34 -48
-29 7 c-16 4 -58 38 -98 79 -39 41 -94 85 -125 101 -51 27 -63 29 -170 29
-102 0 -115 2 -118 18 -2 10 11 32 31 52 32 32 40 35 94 35 44 0 73 -7 123
-31z m-830 -8 c34 -11 70 -27 81 -37 19 -17 19 -18 -22 -54 l-42 -36 -56 29
c-52 27 -62 28 -136 24 -44 -3 -100 -12 -125 -21 -25 -8 -82 -16 -128 -18 -80
-3 -82 -3 -60 15 37 28 160 87 213 102 76 20 202 18 275 -4z m465 -58 c45 -24
123 -87 157 -130 45 -56 95 -165 115 -252 13 -55 18 -117 18 -226 l0 -150 -40
-97 c-22 -54 -42 -98 -45 -98 -3 0 -19 62 -34 138 -48 229 -109 392 -158 424
-13 9 -42 19 -64 22 -49 9 -72 -7 -127 -86 -49 -73 -92 -248 -167 -698 -72
-428 -85 -472 -245 -795 -47 -93 -90 -190 -95 -215 -49 -205 -50 -210 -48
-334 2 -69 0 -128 -5 -132 -4 -4 -17 -3 -29 3 -23 10 -23 11 -17 174 8 213 26
277 164 554 57 116 115 244 129 285 24 73 67 281 101 485 80 478 119 632 184
710 52 63 78 79 136 86 l50 5 -30 13 c-47 20 -100 -1 -161 -63 -65 -67 -77
-99 -150 -410 l-58 -248 -19 23 c-66 79 -127 285 -127 424 0 177 74 377 178
483 112 114 279 160 387 105z m377 -94 c86 -44 195 -173 267 -316 46 -93 13
-82 -38 11 -22 41 -66 102 -98 136 -70 76 -134 111 -207 111 -47 1 -55 4 -69
29 -22 36 -21 39 6 50 30 13 90 4 139 -21z m-942 11 c20 -5 45 -16 55 -24 20
-14 20 -15 -4 -58 l-23 -44 -60 20 c-53 17 -68 18 -126 8 -176 -30 -340 -176
-441 -394 -45 -97 -85 -230 -78 -264 4 -23 2 -24 -62 -24 -107 0 -913 39 -918
44 -8 8 16 105 36 145 37 71 69 101 109 101 21 0 209 -14 418 -31 210 -18 393
-29 407 -25 21 5 29 17 42 64 56 196 261 404 460 465 87 27 133 32 185 17z
m938 -149 c49 -25 130 -112 169 -181 40 -71 90 -196 108 -271 12 -56 12 -59
-6 -59 -13 0 -21 11 -29 43 -33 130 -98 267 -158 330 -31 33 -92 67 -121 67
-12 0 -23 10 -29 28 -5 15 -13 35 -17 45 -10 24 34 23 83 -2z m-971 -21 l30
-11 -16 -53 c-15 -51 -17 -54 -46 -50 -16 2 -84 6 -149 8 -66 3 -123 9 -128
14 -11 11 70 65 128 86 47 17 139 20 181 6z m1023 -177 c73 -89 127 -240 154
-441 25 -179 26 -212 6 -212 -13 0 -19 16 -28 78 -32 208 -94 385 -158 448
-34 35 -42 50 -48 95 -4 30 -10 65 -13 77 -6 24 -5 24 25 8 17 -9 44 -33 62
-53z m-1044 -34 c-3 -17 -6 -46 -6 -64 0 -29 -4 -34 -30 -39 -16 -3 -44 -9
-62 -12 -22 -4 -53 -27 -93 -68 -58 -59 -62 -66 -107 -201 -45 -133 -90 -366
-113 -588 l-7 -57 -46 6 c-26 3 -252 31 -502 63 l-455 57 4 79 c2 44 5 82 7
84 2 2 127 -8 278 -23 150 -15 284 -27 297 -25 13 1 31 -1 39 -4 43 -18 309
-34 311 -19 0 4 2 52 3 107 3 117 28 223 85 355 109 249 231 379 360 380 43 0
43 0 37 -31z m612 -37 c17 -22 15 -83 -4 -110 -19 -28 -67 -29 -94 -2 -26 26
-27 95 -3 122 14 15 25 18 53 13 19 -3 41 -14 48 -23z m420 -200 c56 -145 100
-375 104 -547 3 -90 3 -90 -22 -93 l-26 -3 -12 158 c-20 257 -45 385 -82 418
-13 12 -20 31 -20 55 0 51 11 101 21 95 4 -3 21 -40 37 -83z m-1031 -58 c-5
-6 -179 15 -186 22 -6 6 58 73 84 87 11 6 36 13 55 17 l35 5 8 -63 c5 -35 6
-66 4 -68z m47 -134 c25 -65 26 -71 12 -99 -38 -73 -102 -509 -115 -781 -5
-122 -8 -138 -30 -167 -18 -24 -30 -31 -45 -27 -12 2 -254 54 -538 114 -285
59 -522 111 -528 115 -14 9 -13 55 3 55 6 0 221 -36 476 -80 255 -44 474 -80
487 -80 31 0 38 27 35 140 -6 228 60 608 135 778 23 53 59 102 74 102 3 0 19
-31 34 -70z m925 18 c30 -148 48 -368 54 -625 2 -129 1 -143 -14 -143 -10 0
-24 -3 -32 -6 -22 -8 -29 49 -29 231 1 160 -19 472 -31 492 -8 12 23 103 34
103 4 0 12 -24 18 -52z m-85 -393 c8 -121 -6 -109 -24 20 -7 50 -16 114 -20
142 -5 41 -3 58 9 75 18 25 19 18 35 -237z m-735 194 l34 -40 -32 -152 c-41
-191 -66 -283 -101 -372 -15 -38 -30 -79 -34 -89 -3 -10 -9 -17 -11 -14 -5 4
3 73 45 418 13 103 51 290 59 289 3 0 21 -19 40 -40z m-1414 -696 c4 -17 17
-26 49 -34 41 -10 45 -14 55 -55 6 -24 19 -47 29 -52 9 -5 225 -58 479 -118
441 -104 463 -110 463 -131 0 -28 1 -28 -78 -3 -35 11 -204 55 -375 98 -611
154 -667 167 -685 155 -21 -12 -47 -90 -56 -166 l-6 -58 40 -16 40 -16 -41
-19 c-23 -10 -44 -18 -48 -18 -5 0 -26 104 -47 231 -11 67 11 113 81 175 35
31 69 70 77 88 l13 31 3 -35 c1 -19 5 -45 7 -57z m97 -193 c68 -17 175 -45
238 -61 254 -67 310 -82 440 -115 251 -65 290 -76 290 -85 0 -21 -33 -18 -156
15 -71 19 -199 53 -284 75 -85 22 -209 54 -275 71 -66 17 -183 48 -260 67 -77
20 -144 39 -149 43 -12 11 3 32 19 26 7 -2 69 -19 137 -36z"/>
</g>
</svg>
